# xmcd
#
# Track frame offsets: 
#        150
#        16240
#        26255
#        46942
#        64438
#        83722
#        99525
#        120870
#        133413
#        152051
#        170828
#
# Disc length: 2505 seconds
#
# Revision: 0
# Processed by: cddbd v1.5.2PL0 Copyright (c) Steve Scherf et al.
# Submitted via: ExactAudioCopy v0.95b4
#
DISCID=8909c70b
DTITLE=Jordan Tice - No Place Better
DYEAR=2006
DGENRE=Bluegrass
TTITLE0=1. Last Summer
TTITLE1=2. Donegal Bay
TTITLE2=3. Whatever Makes You Happy
TTITLE3=4. Celia's Rel
TTITLE4=5. Things Left Unsaid
TTITLE5=6. Cuckoo's Nest
TTITLE6=7. Indian Summer
TTITLE7=8. Banjo Bit Me in the Morning
TTITLE8=9. Wicker Basket
TTITLE9=10. Jeans Reel/The Girls at Martinsfield
TTITLE10=11. No Place Better
EXTD=
EXTT0=
EXTT1=
EXTT2=
EXTT3=
EXTT4=
EXTT5=
EXTT6=
EXTT7=
EXTT8=
EXTT9=
EXTT10=
PLAYORDER=
